<?xml version="1.0" encoding="UTF-8"?>
<svg id="Layer_1" xmlns="http://www.w3.org/2000/svg" version="1.1" viewBox="0 0 1366 768">
  <!-- Generator: Adobe Illustrator 29.5.1, SVG Export Plug-In . SVG Version: 2.1.0 Build 141)  -->
  <defs>
    <style>
      .st0 {
        fill: none;
        stroke: #f9f9f9;
        stroke-linecap: round;
        stroke-linejoin: round;
      }
    </style>
  </defs>
  <path class="st0" d="M1196.32,463.83c-2.9,2.9-5.95,5.64-9.15,8.19,25.56,20.49,41.92,51.99,41.92,87.31,0,30.9-12.52,58.87-32.77,79.12-20.25,20.24-48.22,32.77-79.12,32.77h-550.58c-61.79,0-111.89-50.1-111.89-111.89,0-30.9,12.52-58.88,32.77-79.12,2.9-2.9,5.95-5.64,9.15-8.19-25.56-20.5-41.92-51.99-41.92-87.31,0-30.9,12.52-58.87,32.77-79.12,3.16-3.16,6.51-6.13,10.03-8.9-26.06-20.48-42.8-52.3-42.8-88.02,0-30.9,12.52-58.87,32.77-79.12,20.25-20.24,48.23-32.77,79.12-32.77h550.58c61.8,0,111.89,50.1,111.89,111.89,0,30.9-12.52,58.88-32.77,79.12-3.16,3.16-6.51,6.14-10.03,8.9,26.06,20.49,42.8,52.3,42.8,88.02,0,30.9-12.52,58.87-32.77,79.12Z"/>
</svg>