<?xml version="1.0" encoding="UTF-8"?>
<svg xmlns="http://www.w3.org/2000/svg" xmlns:xlink="http://www.w3.org/1999/xlink" viewBox="0 0 1080 1080">
  <defs>
    <style>
      .cls-1 {
        fill: url(#linear-gradient-5);
      }

      .cls-2 {
        fill: url(#linear-gradient-4);
      }

      .cls-3 {
        fill: url(#linear-gradient-3);
      }

      .cls-4 {
        fill: url(#linear-gradient-2);
      }

      .cls-5 {
        fill: #ce471d;
      }

      .cls-6 {
        fill: url(#linear-gradient);
      }

      .cls-7 {
        fill: #604aff;
      }

      .cls-8 {
        fill: #fff;
      }

      .cls-9 {
        fill: #f24611;
      }

      .cls-10 {
        fill: none;
        stroke: #604aff;
        stroke-miterlimit: 10;
        stroke-width: 1.95px;
      }

      .cls-11 {
        fill: #f68e28;
      }
    </style>
    <linearGradient id="linear-gradient" x1="358.98" y1="279.7" x2="738.65" y2="279.7" gradientUnits="userSpaceOnUse">
      <stop offset="0" stop-color="#f04e23"/>
      <stop offset="1" stop-color="#f47d20"/>
    </linearGradient>
    <linearGradient id="linear-gradient-2" x1="358.98" y1="778.61" x2="643.8" y2="778.61" xlink:href="#linear-gradient"/>
    <linearGradient id="linear-gradient-3" x1="708.24" y1="445.03" x2="890.74" y2="445.03" xlink:href="#linear-gradient"/>
    <linearGradient id="linear-gradient-4" x1="708.24" y1="645.81" x2="890.74" y2="645.81" gradientTransform="translate(1598.99 1291.62) rotate(-180)" xlink:href="#linear-gradient"/>
    <linearGradient id="linear-gradient-5" x1="605.69" y1="753.09" x2="365.9" y2="337.76" gradientUnits="userSpaceOnUse">
      <stop offset="0" stop-color="#f04e23"/>
      <stop offset=".08" stop-color="#f15a23"/>
      <stop offset=".27" stop-color="#f37125"/>
      <stop offset=".47" stop-color="#f48127"/>
      <stop offset=".7" stop-color="#f58a27"/>
      <stop offset="1" stop-color="#f68e28"/>
    </linearGradient>
  </defs>
  <g id="Layer_1" data-name="Layer 1">
    <path class="cls-11" d="M245.41,559.92h-46.89c-18.24,0-33.03-14.79-33.03-33.03h0c0-18.24,14.79-33.03,33.03-33.03h46.89v66.07Z"/>
    <path class="cls-11" d="M245.41,623.34h-46.89c-18.24,0-33.03-14.79-33.03-33.03h0c0-18.24,14.79-33.03,33.03-33.03h46.89s0,66.07,0,66.07Z"/>
    <path class="cls-6" d="M738.65,253.13c0,11.69-4.74,22.27-12.4,29.93-7.66,7.66-18.24,12.4-29.94,12.4h-19.94c.93,3.45,1.41,7.08,1.41,10.82,0,11.69-4.73,22.27-12.4,29.94-7.66,7.66-18.23,12.4-29.93,12.4h-276.47v-42.34c0-23.37,18.96-42.33,42.34-42.33h19.94c-.93-3.45-1.41-7.08-1.41-10.82,0-11.7,4.73-22.28,12.4-29.94,7.66-7.66,18.23-12.4,29.93-12.4h234.13c23.38,0,42.34,18.96,42.34,42.34Z"/>
    <path class="cls-4" d="M643.8,808.82c0,16.67-6.76,31.77-17.69,42.7-10.92,10.93-26.03,17.69-42.71,17.69h-107.24c-33.36,0-60.4-27.05-60.4-60.4v-.12c-31.68-1.86-56.78-28.15-56.78-60.28h0c0-33.36,27.04-60.41,60.4-60.41h107.24c33.36,0,60.4,27.05,60.4,60.4v.12c31.68,1.86,56.78,28.15,56.78,60.29Z"/>
    <path class="cls-3" d="M880.86,314.75h0c5.46,0,9.89,4.43,9.89,9.89v78.07c0,95.27-77.35,172.61-172.61,172.61h0c-5.46,0-9.89-4.43-9.89-9.89v-78.07c0-95.27,77.35-172.61,172.61-172.61Z"/>
    <path class="cls-2" d="M718.13,515.53h0c95.27,0,172.61,77.35,172.61,172.61v78.07c0,5.46-4.43,9.89-9.89,9.89h0c-95.27,0-172.61-77.35-172.61-172.61v-78.07c0-5.46,4.43-9.89,9.89-9.89Z" transform="translate(1598.99 1291.62) rotate(180)"/>
    <rect class="cls-1" x="216.21" y="335.51" width="539.18" height="419.84" rx="209.92" ry="209.92"/>
  </g>
  <g id="Layer_2" data-name="Layer 2">
    <circle class="cls-8" cx="342.46" cy="545.42" r="55.83"/>
    <circle class="cls-5" cx="342.46" cy="545.42" r="43.21"/>
    <rect class="cls-9" x="275.69" y="455.8" width="133.54" height="53.09" rx="26.55" ry="26.55"/>
  </g>
  <g id="Layer_3" data-name="Layer 3">
    <path class="cls-10" d="M739.32,253.12c0,11.69-7.23,20.45-14.89,28.1-7.66,7.66-16.42,12.26-28.12,12.26-9.97,0-10.61-2.44-20.42-.66.92,3.46.7,9.7.7,13.43,0,11.69-.68,25.15-8.35,32.81-7.66,7.67-21.1,15.27-32.8,15.27-8.42,0-7.71-9.79-16.03-11.05-11.55-4.3-24.86.4-37.27-1.82s-24-1.26-36.68-1.26c-19.89,0-19.89-6.03-39.78-6.03-19.89,0-19.89,1.38-39.78,1.38s-19.89-1.73-39.78-1.73c-23.48,0-49.56,7.76-70.65,14.86-10.8-16.95,3.33-22.33,3.33-42.43,0-23.36,19.12-45.03,42.51-45.03,9.97,0,10.52,6.63,20.33,4.86-.92-3.44,3.73-9.23,3.73-12.97,0-11.7-2.64-24.13,5.02-31.79,7.67-7.66,20.08-10.24,31.78-10.24,23.41,0,23.41,5.82,46.82,5.82s23.41-.42,46.82-.42,23.41-11.85,46.82-11.85,23.41,6.36,46.83,6.36,23.41-2.25,46.83-2.25,43,20.99,43,44.37Z"/>
    <path class="cls-10" d="M647.65,808.82c0,16.67-6.45,35.94-17.38,46.87-10.92,10.93-30.19,18.35-46.87,18.35-26.81,0-26.81-8.58-53.62-8.58s-26.81,6.62-53.62,6.62c-16.68,0-31.03-10.37-41.96-21.3s-15.2-25.28-15.2-41.96c0-.06-2.85-5.11-2.91-5.12-15.88-.93-27.98-5.32-38.23-16.19s-21.69-23.07-21.69-39.09c0,0,4.29,0,4.29-.01,0-1.34-2.17-.05-2.06-1.37,21.05,7.09,44.29,14.58,67.72,14.58,19.89,0,19.89-.95,39.78-.95s19.89-.46,39.78-.46,19.89-.97,39.78-.97c17,0,33.66-2.49,49.49-6.31,14.06,2.69,22.58,9.86,31.35,20.47s21.35,20.81,21.35,35.43Z"/>
    <path class="cls-10" d="M809.61,545.43c11.6,7.9,28.69,16.4,38.03,26.82,9.31,10.4,21.99,19.81,28.59,32.24,6.49,12.25,8.98,27.55,12.39,41.33s-.51,27.98-.51,42.32c0,19.52,3.41,19.52,3.41,39.03s4.18,19.52,4.18,39.03c0,5.46-9.38,9-14.84,9-17.99,0-36.29,1.15-52.6-3.95-16.9-5.29-29.19-19.78-43.41-29.69-14.38-10.02-25.5-21.77-36.23-35.59-10.65-13.72-24.42-25.92-30.57-42.48,9.27-13.58,23.42-26.12,29.33-41.73,5.77-15.25-1-34.09,1.08-50.8,1.08-8.58,1.77-16.67,1.77-25.53s3.61-17.49,2.53-26.08c-2.08-16.71-9.48-31.27-15.25-46.52-5.9-15.61-11.95-31.7-21.22-45.27,6.15-16.57,17.56-32.17,28.2-45.89s21.26-29.16,35.64-39.17,32.64-13.15,49.54-18.44,33.21-9.76,51.2-9.76c2.73,0,8.34-1.59,10.14.21s-4.07,7.41-4.07,10.14c0,19.52-1.31,19.52-1.31,39.04s-.57,19.52-.57,39.04c0,14.34,8.54,29.41,5.24,42.73-3.41,13.77-8.03,28.42-14.52,40.67s-20.65,20.44-29.96,30.84-24.59,20.57-36.19,28.47Z"/>
    <path class="cls-7" d="M545.47,332.06c7.36,0,14.84,2.43,22.07,4.77,4.82,1.57,9.81,3.18,14.71,4.06,5.23.94,10.78,1.05,16.13,1.17,7.78.17,15.13.32,21.64,2.75,8.49,3.16,16.21,9.06,23.67,14.77,4.17,3.19,8.48,6.49,12.86,9.25,1.11.7,2.22,1.39,3.33,2.09,11.02,6.92,22.42,14.07,31.68,23,6.44,6.21,11.02,14.44,15.45,22.4,2.53,4.55,5.15,9.24,8.11,13.59,3.14,4.6,6.75,9.07,10.24,13.39,6.86,8.5,13.95,17.28,17.77,27.38,3.36,8.88,3.01,18.69,2.64,29.08-.24,6.72-.48,13.66.35,20.4.53,4.19,2.31,8.19,4.04,12.06,2.01,4.51,3.92,8.77,3.92,13.2,0,2.34.04,4.72.08,7.02.11,6.37.23,12.96-.55,19.16-1.79,14.42-5.82,29.58-12.68,47.72-4.15,10.97-11.32,20.57-18.26,29.85-2.75,3.67-5.59,7.47-8.21,11.32-3.05,4.47-5.48,9.48-7.83,14.32-3.55,7.32-6.91,14.22-12.23,19.55-8.94,8.94-20.95,14.53-32.57,19.94-5.62,2.62-11.44,5.32-16.9,8.4-6.16,3.47-12.08,7.96-17.81,12.31-9.77,7.42-19.87,15.09-31.48,17.88-6.07,1.47-13.05,2.15-21.98,2.15-4.63,0-9.42-.18-14.05-.35-4.65-.17-9.46-.35-14.15-.35-9.98,0-15.06.19-19.96.38-4.87.18-9.91.37-19.82.37s-14.89-.37-19.75-.72c-4.92-.36-10.02-.74-20.03-.74s-14.39-1.29-19.37-2.66c-5.01-1.38-10.2-2.8-20.4-2.8-20.71,0-40.57-3.57-64.37-11.58-4.13-1.39-8.3-2.62-12.32-3.8-10.33-3.04-20.09-5.91-29.11-11.34-11.56-6.96-24.83-15.28-36.14-25.99-7.33-6.94-12.38-15.34-17.72-24.23-2.42-4.02-4.91-8.18-7.64-12.19-3.04-4.47-6.54-8.72-9.93-12.82-6.05-7.34-12.31-14.94-15.87-23.82l-.32-.8-.81-.3c-3.86-1.43-7.06-2.1-10.07-2.1-3.6,0-6.37.97-9.31,2-3.52,1.23-7.5,2.62-13.99,2.62-7.84,0-14.41-3.48-19.02-10.05-4.24-6.07-6.58-14.4-6.58-23.46s2.27-12.48,7.69-17.91c1.15-1.15,2.07-2.25,2.88-3.22,1.89-2.25,3.17-3.78,6.1-4.76,2.94.82,5.72,1.18,8.93,1.18,20.56,0,23.42-.17,39.31-1.08,2.3-.13,4.87-.28,7.81-.45,1.57-.09,2.7-1.27,2.7-2.81,0-1.65-1.31-3.02-2.99-3.12-3.46-.2-6.52-.29-9.36-.29-6.91,0-11.28.58-15.91,1.19-5.42.71-11.02,1.45-21.57,1.45-.61-.05-2.04-2.06-2.73-3.02-1.53-2.14-3.11-4.36-5.45-4.36-.11,0-.22,0-.33.02-7.58-2.26-14.46-5.64-19.42-9.53-6.28-4.93-9.47-10.56-9.47-16.72,0-8.07,6.65-18.39,12.82-24.57,5.85-5.85,16.53-7.93,24.57-7.93,4.6,0,7.8,1.67,10.91,3.28,2.72,1.42,5.3,2.75,8.43,2.75,2.39,0,4.8-.8,7.37-2.45l.65-.42.19-.75c1.53-6.07,2.67-12.68,3.77-19.08,2.3-13.33,4.67-27.12,10.73-37.75,10.75-18.88,22.17-34.42,33.94-46.18,6.62-6.63,16.1-10.62,25.26-14.47,6.1-2.57,12.4-5.22,17.92-8.65,13.72-8.54,28.83-13.96,43.12-18.79,19.96-6.72,40.55-8.1,65.31-8.1,9.97,0,15.04-.14,19.95-.28,4.88-.14,9.92-.28,19.84-.28s15.63-2.44,20.71-4.79c4.91-2.28,9.56-4.43,19.07-4.43,10.04,0,15.14-.5,20.08-.98,4.84-.47,9.85-.96,19.7-.96M302.24,457.56c-1.18,0-2.38-.03-3.53-.06-1.14-.03-2.31-.06-3.45-.06-4.81,0-9.78.53-13.59,4.34-7.28,7.28-10.97,14.2-10.97,20.58,0,7.04,3.73,13.84,10.5,19.13,4.96,3.88,11.3,6.67,17.52,7.78-8.33,10.74-13.22,24.02-13.22,36.16,0,16.5,9.66,27.53,19.55,37.42,10.69,10.68,21.59,20.28,37.42,20.28s30.85-5.98,41.29-16.41c9.65-9.64,21.15-24.64,21.15-41.28,0-12.17-9.6-22.39-18.06-31.41-.84-.9-1.67-1.78-2.46-2.63,7.76-.37,18.16-.94,22.28-5.07,3.89-3.9,2.48-10.05,1.11-15.99-.64-2.78-1.3-5.65-1.3-7.97,0-16.57-8.67-26.07-23.79-26.07-9.78,0-14.53-1.38-19.57-2.84-5.07-1.47-10.32-2.99-20.65-2.99s-15.66,1.86-20.76,3.66c-5.01,1.77-9.74,3.44-19.46,3.44M545.47,330.11c-19.89,0-19.89,1.94-39.78,1.94s-19.89,9.22-39.78,9.22-19.89.57-39.78.57c-23.48,0-44.85,1.1-65.94,8.2-15.4,5.2-29.97,10.54-43.53,18.98-13.71,8.53-32.18,12.04-43.53,23.4-13.27,13.26-24.9,30.18-34.25,46.59-9.21,16.17-10.03,38.83-14.7,57.31-2.41,1.55-4.45,2.14-6.31,2.14-5.96,0-10.18-6.03-19.34-6.03s-19.97,2.53-25.95,8.51c-5.98,5.98-13.39,16.82-13.39,25.95,0,15.02,16.99,24.24,30.72,28.25.15-.04.3-.06.44-.06,2.75,0,5.12,7.38,8.18,7.38,19.86,0,22.81-2.64,37.48-2.64,2.65,0,5.67.09,9.25.29,1.32.07,1.61,1.96.29,2.03-23.41,1.32-23.57,1.53-47.02,1.53-3.22,0-6.01-.4-8.95-1.27-5.39,1.57-6.46,4.75-10.34,8.63-5.98,5.98-8.26,10.17-8.26,19.29,0,18.25,9.31,35.46,27.55,35.46,12.16,0,15.86-4.62,23.31-4.62,2.54,0,5.51.54,9.39,1.98,5.67,14.17,17.52,24.56,25.99,37.02,8.54,12.55,14.63,26.33,25.63,36.74,10.98,10.39,23.46,18.4,36.48,26.24,12.88,7.76,27.33,10.44,41.82,15.32,21.05,7.09,41.56,11.69,64.99,11.69,19.89,0,19.89,5.46,39.78,5.46s19.89,1.46,39.78,1.46,19.89-.75,39.78-.75c9.31,0,18.86.69,28.2.69,7.71,0,15.27-.47,22.44-2.2,18.92-4.56,33.25-21.09,49.78-30.39,16.8-9.44,36.37-15.13,49.89-28.66,9.27-9.27,12.88-23.28,20.29-34.15,9.27-13.58,20.78-25.97,26.69-41.58,5.77-15.25,10.72-31.46,12.8-48.17,1.08-8.58.49-17.55.49-26.42s-6.89-16.91-7.97-25.5c-2.08-16.71,2.66-34.68-3.11-49.93-5.9-15.61-18.96-27.62-28.23-41.19-8.13-11.92-13.46-26.3-23.81-36.29-10.34-9.98-23.11-17.64-35.32-25.34-12.1-7.63-23.29-19.14-36.89-24.2-11.55-4.3-25.71-1.79-38.11-4.01-12.06-2.16-24.45-8.87-37.13-8.87h0ZM302.24,459.51c20.11,0,20.11-7.11,40.22-7.11s20.11,5.83,40.22,5.83c14.66,0,21.84,9.45,21.84,24.12,0,7.32,5.55,17.78.76,22.59-4.37,4.37-18.52,4.25-25.08,4.72,8.52,9.8,22.75,21.77,22.75,35.77,0,15.42-10.47,29.8-20.58,39.9-10.1,10.1-24.49,15.84-39.91,15.84s-25.94-9.6-36.05-19.7c-10.1-10.1-18.98-20.62-18.98-36.04,0-14,6.5-27.85,15.01-37.65-13.75-.99-29.81-11.42-29.81-25.42,0-7.33,5.6-14.4,10.4-19.2,3.24-3.24,7.52-3.77,12.22-3.77,2.25,0,4.6.12,6.98.12h0Z"/>
    <path class="cls-7" d="M382.42,506.24c.34.15,1.01.53,1.48.79.95.53,1.63.9,2.19,1.11,6.74,8.2,6.63,20.67,6.52,32.74-.01,1.53-.03,3.05-.03,4.55,0,14.8-.81,30.06-10.43,39.68-9.28,9.27-23.46,10.03-39.69,10.03-.96,0-1.93,0-2.9,0-.97,0-1.95,0-2.93,0-13.84,0-26.94-.67-35.08-8.82-11.4-11.4-13.1-30.52-13.1-40.9,0-12.04,7.29-20.32,15-29.08.55-.63,1.11-1.26,1.66-1.89h1.04s.02-.32.02-.32c7.67-.15,12.12-.72,16.43-1.27,5.11-.66,9.93-1.28,19.86-1.28s15.55-1.39,20.61-2.74c5-1.33,9.73-2.58,19.35-2.61M382.68,504.29c-20.11,0-20.11,5.34-40.22,5.34s-20.11,2.58-40.22,2.58c-.6,0,2.17.29,2.06.29,0,0-.03,0-.08,0-8.51,9.8-17.72,18.93-17.72,32.93,0,15.42,3.57,32.18,13.68,42.28,8.84,8.84,22.79,9.39,36.46,9.39,1.95,0,3.9-.01,5.82-.01,15.42,0,30.96-.5,41.07-10.6,10.1-10.1,11.01-25.65,11.01-41.06,0-14,1.17-29.21-7.35-39.02,0,0-.02,0-.02,0-.69,0-3.84-2.12-4.48-2.12h0Z"/>
    <path class="cls-10" d="M488.8,521.52c11.33,0,25-4.1,32.43,3.32s13.27,21.1,13.27,32.43c0,0-3.73,0-3.73,0,0,11.33-2.53,24.58-9.96,32-7.43,7.43-20.67,11.5-32,11.5"/>
    <path class="cls-10" d="M488.8,593.85c11.33,0,21.02,9.62,28.45,17.04s15.43,17.11,15.43,28.45c0,0-6.85,0-6.85,0,0,11.33-3.97,18.21-11.4,25.63-7.43,7.43-14.3,16.26-25.63,16.26"/>
    <path class="cls-10" d="M532.75,555c11.33,0,20.41,8.05,27.83,15.48,7.43,7.43,7.62,16.5,7.62,27.83,0,0,10.08,0,10.08,0,0,11.33-11.81,18.88-19.24,26.3-7.43,7.43-14.97,20.55-26.3,20.55"/>
    <path class="cls-10" d="M573.78,378.72c11.33,0,22.55,4.73,29.97,12.16s9.7,18.64,9.7,29.97c0,0,.85,0,.85,0,0,11.33-3.24,22.43-10.66,29.86-7.43,7.43-18.53,13.75-29.86,13.75"/>
    <path class="cls-10" d="M603.89,453.53c11.33,0,18.67,2.54,26.1,9.96,7.43,7.43,16.01,14.76,16.01,26.1,0,0,2,0,2,0,0,11.33-6.33,22.92-13.75,30.35-7.43,7.43-19.02,15.47-30.35,15.47"/>
    <path class="cls-10" d="M598.52,629.04c11.33,0,21.79,5.93,29.21,13.36,7.43,7.43,7.1,17.88,7.1,29.21,0,0,6.44,0,6.44,0,0,11.33-6.65,21.24-14.08,28.67-7.43,7.43-17.34,13.99-28.67,13.99"/>
    <path class="cls-10" d="M532.75,807.56c13.88,0,13.88-4.58,27.76-4.58s13.88,9.28,27.76,9.28,13.88-2.92,27.76-2.92,13.88,3.02,27.76,3.02"/>
    <path class="cls-10" d="M529.83,832.27c17.79,0,17.79,5.24,35.58,5.24s17.79-3.82,35.58-3.82,17.79,4.18,35.58,4.18"/>
    <path class="cls-10" d="M583.2,242.07c15.54,0,15.54,3.11,31.09,3.11s15.55-1.79,31.09-1.79,15.54,4.71,31.09,4.71,15.55-5.49,31.09-5.49,15.55,5.2,31.09,5.2"/>
    <path class="cls-10" d="M548.82,279.41c14.79,0,14.79,5.34,29.57,5.34s14.79-.3,29.57-.3,14.79-7.2,29.57-7.2,14.79-2.51,29.57-2.51,14.79,2.86,29.58,2.86,14.79-3.68,29.58-3.68"/>
    <path class="cls-10" d="M776.58,646.4c1.88,8.2,5.58,21.8,12.98,36.38,5.09,10.03,18.55,16.01,27.82,26.63,6.89,7.9,11.44,16.27,18.6,21.84,8.53,6.64,17.42,9.94,25.14,13.88,11.35,5.81,19.05,13.31,25.13,15.09"/>
    <path class="cls-10" d="M795.75,601.09c1.88,8.2.54,23.45,7.94,38.03,5.09,10.03,18.59,16.62,27.87,27.24,6.89,7.9,8.26,21.07,15.42,26.64,8.53,6.64,18.16,11.78,25.87,15.73,11.35,5.81,24.94-.66,31.01,1.13"/>
  </g>
  <g id="Layer_4" data-name="Layer 4">
    <circle class="cls-8" cx="406.93" cy="393.58" r="7.1"/>
    <circle class="cls-8" cx="363.34" cy="405.03" r="4.36"/>
    <circle class="cls-8" cx="350.58" cy="695.03" r="2.95"/>
    <circle class="cls-8" cx="563.75" cy="436.12" r="3.69"/>
    <circle class="cls-8" cx="578.49" cy="498.56" r="4.71"/>
    <circle class="cls-8" cx="435.59" cy="543.02" r="2.4"/>
  </g>
</svg>